<svg width="382" height="424" viewBox="0 0 382 424" fill="none" xmlns="http://www.w3.org/2000/svg">
<circle cx="129.87" cy="207.12" r="128.927" fill="#A99EF0"/>
<mask id="path-2-outside-1_1463_673" maskUnits="userSpaceOnUse" x="117.475" y="-0.512695" width="264" height="424" fill="black">
<rect fill="white" x="117.475" y="-0.512695" width="264" height="424"/>
<path d="M263.575 198.734C265.128 199.355 265.749 200.596 265.438 202.459C265.438 203.08 264.972 203.546 264.041 203.856C262.799 204.167 262.023 204.322 261.713 204.322C257.056 204.322 251.933 205.719 246.345 208.513C241.688 210.997 237.187 214.101 232.841 217.827C232.53 218.137 228.494 221.862 220.733 229.003C219.802 229.934 219.181 231.021 218.87 232.263C216.387 244.37 212.506 256.478 207.228 268.586C204.745 274.174 202.106 279.296 199.312 283.953C196.828 287.989 193.724 292.025 189.998 296.061C187.825 298.234 184.72 300.097 180.685 301.649C179.443 301.959 177.735 301.959 175.562 301.649C175.562 301.649 175.407 301.649 175.096 301.649C174.786 301.338 174.631 301.183 174.631 301.183C173.078 301.183 171.837 300.252 170.905 298.389C169.043 294.664 168.732 290.473 169.974 285.816C171.216 281.159 172.923 276.657 175.096 272.311C177.89 267.344 181.305 262.221 185.341 256.944C191.24 249.803 196.828 243.284 202.106 237.385C203.037 236.143 203.658 234.901 203.968 233.66C203.968 233.66 204.124 232.884 204.434 231.331C205.055 229.469 205.366 228.072 205.366 227.14C206.607 218.758 206.918 212.083 206.297 207.116C205.986 205.564 205.521 204.167 204.9 202.925C203.968 201.062 202.416 200.441 200.243 201.062C197.759 202.304 195.431 203.856 193.258 205.719C190.153 208.823 186.894 212.704 183.479 217.361C177.89 226.054 171.992 236.919 165.783 249.958C160.816 260.203 156.159 270.914 151.812 282.09C147.777 293.267 144.517 303.667 142.033 313.291C141.723 314.843 140.791 318.568 139.239 324.467C138.929 326.33 138.773 328.348 138.773 330.521C138.463 347.285 138.308 358.306 138.308 363.584C138.308 371.345 137.997 384.85 137.376 404.098C137.376 405.03 137.221 407.203 136.911 410.618C136.6 413.101 135.514 415.119 133.651 416.672C132.409 418.224 130.391 419 127.597 419C125.424 418.69 124.027 417.292 123.406 414.809C123.096 412.636 122.94 410.463 122.94 408.289C122.63 406.737 122.475 404.409 122.475 401.304C122.475 398.2 122.475 396.026 122.475 394.785C122.475 392.301 122.785 385.161 123.406 373.363C123.406 372.122 123.406 366.533 123.406 356.599C123.406 353.494 123.406 348.682 123.406 342.163C123.406 335.643 123.406 330.831 123.406 327.727C123.406 326.175 123.406 324.001 123.406 321.207C123.096 318.103 122.94 315.309 122.94 312.825C122.94 310.341 122.94 308.013 122.94 305.84C122.94 304.598 123.096 303.046 123.406 301.183C123.406 299.32 123.406 297.458 123.406 295.595C123.406 293.422 123.406 291.714 123.406 290.473C123.406 289.541 123.406 287.523 123.406 284.419C123.406 281.314 123.406 278.831 123.406 276.968C123.716 266.102 124.027 257.875 124.337 252.287C124.648 245.146 124.958 238.006 125.269 230.866C125.579 227.451 126.2 219.845 127.131 208.047C127.442 200.286 127.752 195.319 128.063 193.146C128.373 191.283 128.684 189.42 128.994 187.557C128.994 185.384 129.149 183.056 129.46 180.572C129.77 178.089 130.081 176.071 130.391 174.518C130.391 173.587 130.391 172.5 130.391 171.259C130.702 170.017 130.857 168.775 130.857 167.533C131.167 165.981 131.323 164.739 131.323 163.808C131.633 163.497 131.788 163.032 131.788 162.411C131.788 161.479 131.788 160.703 131.788 160.082C132.099 159.461 132.254 158.841 132.254 158.22C132.564 155.426 133.34 152.631 134.582 149.837C134.893 149.527 135.048 149.217 135.048 148.906C136.6 146.733 138.773 145.802 141.567 146.112C141.567 146.112 141.723 146.112 142.033 146.112C142.344 146.112 142.499 146.112 142.499 146.112C143.43 145.802 144.672 146.267 146.224 147.509C146.845 147.819 147.466 148.751 148.087 150.303C149.018 153.718 149.174 157.754 148.553 162.411C147.621 169.551 146.379 175.915 144.827 181.504C144.206 184.298 143.741 187.247 143.43 190.352C142.809 196.561 142.344 203.08 142.033 209.91C141.412 218.913 141.102 225.743 141.102 230.4C140.481 242.508 140.015 255.547 139.705 269.517C139.394 272.621 139.239 279.296 139.239 289.541C139.239 289.852 139.239 290.317 139.239 290.938C139.239 291.249 139.239 291.559 139.239 291.87C139.55 291.559 139.86 290.938 140.17 290.007C140.481 289.386 141.412 287.058 142.964 283.022C144.517 278.675 145.759 275.416 146.69 273.242C149.484 265.792 152.589 258.341 156.004 250.89C159.729 242.197 163.61 234.281 167.645 227.14C171.992 218.758 176.183 211.928 180.219 206.65C182.392 203.546 184.876 200.752 187.67 198.268C191.085 194.543 195.276 192.214 200.243 191.283C203.037 190.662 206.142 191.128 209.557 192.68C212.972 194.232 215.455 197.181 217.007 201.528C219.181 206.495 220.267 211.307 220.267 215.964C220.267 215.964 220.267 216.895 220.267 218.758C220.578 218.447 221.043 217.982 221.664 217.361L223.061 216.43C230.202 210.22 236.566 205.719 242.154 202.925C248.674 199.82 254.727 198.268 260.316 198.268C261.557 198.579 262.644 198.734 263.575 198.734ZM186.738 276.502C189.222 272.156 192.016 266.412 195.121 259.272C195.121 259.272 195.121 258.806 195.121 257.875C192.016 261.6 188.912 266.257 185.807 271.845C183.013 277.434 181.616 281.625 181.616 284.419C182.237 283.798 182.547 283.487 182.547 283.487C185.031 279.451 186.428 277.123 186.738 276.502Z"/>
<path d="M375.033 197.337C376.275 197.958 376.895 198.889 376.895 200.131C377.206 201.993 377.206 203.856 376.895 205.719C375.964 210.376 374.101 216.74 371.307 224.812C367.271 237.54 362.149 251.666 355.94 267.189C349.11 284.884 343.832 298.234 340.107 307.237C334.829 320.276 328.931 332.228 322.411 343.094C318.065 349.924 313.718 355.512 309.372 359.859C306.888 362.963 304.405 365.292 301.921 366.844C300.679 367.775 298.817 368.862 296.333 370.104C294.781 371.035 292.918 371.501 290.745 371.501C290.745 371.501 289.969 371.501 288.416 371.501C287.175 371.501 286.399 371.501 286.088 371.501C283.604 371.19 280.655 370.104 277.24 368.241C275.067 366.999 272.739 364.981 270.255 362.187C266.84 357.841 263.735 352.563 260.941 346.354C258.458 340.766 256.595 335.333 255.353 330.055C253.491 323.536 252.093 316.706 251.162 309.565C249.61 299.631 248.834 290.938 248.834 283.487C248.834 273.242 248.989 263.929 249.299 255.547C249.299 252.753 249.765 246.388 250.696 236.454C251.007 230.555 251.473 225.588 252.093 221.552C252.714 215.653 253.646 209.134 254.888 201.993C256.129 194.853 257.371 188.489 258.613 182.901C258.923 180.727 260.01 175.139 261.873 166.136C263.425 160.238 264.356 156.512 264.667 154.96C265.598 151.234 267.15 145.336 269.324 137.264C270.565 133.228 271.807 129.503 273.049 126.088C273.98 122.673 275.377 118.326 277.24 113.049L279.569 105.132C279.569 105.132 279.724 104.977 280.034 104.667C280.345 103.735 280.5 103.114 280.5 102.804C285.467 89.4544 290.434 77.3467 295.402 66.4808C303.163 49.4059 310.769 35.5908 318.22 25.0354C322.256 19.1368 325.981 14.6352 329.396 11.5307C330.638 10.2889 332.656 8.73665 335.45 6.87393C337.002 5.63212 339.02 4.85598 341.504 4.54551C343.988 4.23506 346.626 5.16643 349.42 7.33961C350.662 8.58142 351.749 10.2889 352.68 12.4621C353.922 14.9457 354.698 17.7398 355.009 20.8443C355.629 25.1906 355.94 28.6056 355.94 31.0892C356.561 38.5401 356.25 46.7671 355.009 55.7702C353.456 68.8092 350.817 81.8483 347.092 94.8873C343.987 105.443 339.952 116.309 334.984 127.485C328.775 141.145 321.635 154.339 313.563 167.068C303.318 182.28 292.452 195.784 280.966 207.582C278.482 209.755 275.998 211.928 273.515 214.101C271.962 215.343 269.945 215.964 267.461 215.964C267.15 216.585 266.995 216.895 266.995 216.895C265.443 230.245 264.356 242.352 263.735 253.218C263.115 266.878 262.959 278.675 263.27 288.61C263.891 298.544 264.512 306.771 265.132 313.291C266.374 322.604 268.082 330.521 270.255 337.04C272.428 343.249 274.912 348.527 277.706 352.874C279.258 355.357 281.121 357.53 283.294 359.393C286.088 362.187 289.348 362.808 293.073 361.256C295.246 360.324 297.42 358.927 299.593 357.065C304.25 353.339 308.751 348.372 313.097 342.163C318.375 334.712 323.808 325.398 329.396 314.222C334.674 303.667 340.573 289.852 347.092 272.777C356.406 248.872 363.236 230.4 367.582 217.361C368.203 215.498 369.289 211.462 370.842 205.253C371.152 205.253 371.463 204.167 371.773 201.993C372.394 199.51 373.481 197.958 375.033 197.337ZM280.5 145.646C274.912 167.688 270.876 188.644 268.392 208.513C268.392 208.513 268.392 208.979 268.392 209.91C268.392 209.6 268.547 209.289 268.858 208.979C269.479 208.668 269.945 208.513 270.255 208.513C276.774 201.373 280.5 197.181 281.431 195.94C301.3 173.898 317.289 149.372 329.396 122.362C334.363 110.565 338.555 98.9232 341.97 87.4364C346.626 70.672 349.11 55.4598 349.42 41.7999C349.42 36.2117 349.265 31.7101 348.955 28.2952C348.644 24.5697 348.179 21.31 347.558 18.5159C346.937 16.3427 346.005 14.6352 344.764 13.3934C343.211 11.8412 341.504 11.5307 339.641 12.4621C338.089 13.7039 336.537 14.9457 334.984 16.1875C333.122 18.0502 330.948 20.8443 328.465 24.5697C323.808 31.0892 319.151 39.161 314.494 48.785C311.08 55.615 307.82 62.9106 304.715 70.672C300.369 81.2274 296.488 91.7828 293.073 102.338C293.073 102.338 292.918 103.114 292.608 104.667L290.279 110.255C286.864 121.741 283.604 133.539 280.5 145.646Z"/>
</mask>
<path d="M263.575 198.734C265.128 199.355 265.749 200.596 265.438 202.459C265.438 203.08 264.972 203.546 264.041 203.856C262.799 204.167 262.023 204.322 261.713 204.322C257.056 204.322 251.933 205.719 246.345 208.513C241.688 210.997 237.187 214.101 232.841 217.827C232.53 218.137 228.494 221.862 220.733 229.003C219.802 229.934 219.181 231.021 218.87 232.263C216.387 244.37 212.506 256.478 207.228 268.586C204.745 274.174 202.106 279.296 199.312 283.953C196.828 287.989 193.724 292.025 189.998 296.061C187.825 298.234 184.72 300.097 180.685 301.649C179.443 301.959 177.735 301.959 175.562 301.649C175.562 301.649 175.407 301.649 175.096 301.649C174.786 301.338 174.631 301.183 174.631 301.183C173.078 301.183 171.837 300.252 170.905 298.389C169.043 294.664 168.732 290.473 169.974 285.816C171.216 281.159 172.923 276.657 175.096 272.311C177.89 267.344 181.305 262.221 185.341 256.944C191.24 249.803 196.828 243.284 202.106 237.385C203.037 236.143 203.658 234.901 203.968 233.66C203.968 233.66 204.124 232.884 204.434 231.331C205.055 229.469 205.366 228.072 205.366 227.14C206.607 218.758 206.918 212.083 206.297 207.116C205.986 205.564 205.521 204.167 204.9 202.925C203.968 201.062 202.416 200.441 200.243 201.062C197.759 202.304 195.431 203.856 193.258 205.719C190.153 208.823 186.894 212.704 183.479 217.361C177.89 226.054 171.992 236.919 165.783 249.958C160.816 260.203 156.159 270.914 151.812 282.09C147.777 293.267 144.517 303.667 142.033 313.291C141.723 314.843 140.791 318.568 139.239 324.467C138.929 326.33 138.773 328.348 138.773 330.521C138.463 347.285 138.308 358.306 138.308 363.584C138.308 371.345 137.997 384.85 137.376 404.098C137.376 405.03 137.221 407.203 136.911 410.618C136.6 413.101 135.514 415.119 133.651 416.672C132.409 418.224 130.391 419 127.597 419C125.424 418.69 124.027 417.292 123.406 414.809C123.096 412.636 122.94 410.463 122.94 408.289C122.63 406.737 122.475 404.409 122.475 401.304C122.475 398.2 122.475 396.026 122.475 394.785C122.475 392.301 122.785 385.161 123.406 373.363C123.406 372.122 123.406 366.533 123.406 356.599C123.406 353.494 123.406 348.682 123.406 342.163C123.406 335.643 123.406 330.831 123.406 327.727C123.406 326.175 123.406 324.001 123.406 321.207C123.096 318.103 122.94 315.309 122.94 312.825C122.94 310.341 122.94 308.013 122.94 305.84C122.94 304.598 123.096 303.046 123.406 301.183C123.406 299.32 123.406 297.458 123.406 295.595C123.406 293.422 123.406 291.714 123.406 290.473C123.406 289.541 123.406 287.523 123.406 284.419C123.406 281.314 123.406 278.831 123.406 276.968C123.716 266.102 124.027 257.875 124.337 252.287C124.648 245.146 124.958 238.006 125.269 230.866C125.579 227.451 126.2 219.845 127.131 208.047C127.442 200.286 127.752 195.319 128.063 193.146C128.373 191.283 128.684 189.42 128.994 187.557C128.994 185.384 129.149 183.056 129.46 180.572C129.77 178.089 130.081 176.071 130.391 174.518C130.391 173.587 130.391 172.5 130.391 171.259C130.702 170.017 130.857 168.775 130.857 167.533C131.167 165.981 131.323 164.739 131.323 163.808C131.633 163.497 131.788 163.032 131.788 162.411C131.788 161.479 131.788 160.703 131.788 160.082C132.099 159.461 132.254 158.841 132.254 158.22C132.564 155.426 133.34 152.631 134.582 149.837C134.893 149.527 135.048 149.217 135.048 148.906C136.6 146.733 138.773 145.802 141.567 146.112C141.567 146.112 141.723 146.112 142.033 146.112C142.344 146.112 142.499 146.112 142.499 146.112C143.43 145.802 144.672 146.267 146.224 147.509C146.845 147.819 147.466 148.751 148.087 150.303C149.018 153.718 149.174 157.754 148.553 162.411C147.621 169.551 146.379 175.915 144.827 181.504C144.206 184.298 143.741 187.247 143.43 190.352C142.809 196.561 142.344 203.08 142.033 209.91C141.412 218.913 141.102 225.743 141.102 230.4C140.481 242.508 140.015 255.547 139.705 269.517C139.394 272.621 139.239 279.296 139.239 289.541C139.239 289.852 139.239 290.317 139.239 290.938C139.239 291.249 139.239 291.559 139.239 291.87C139.55 291.559 139.86 290.938 140.17 290.007C140.481 289.386 141.412 287.058 142.964 283.022C144.517 278.675 145.759 275.416 146.69 273.242C149.484 265.792 152.589 258.341 156.004 250.89C159.729 242.197 163.61 234.281 167.645 227.14C171.992 218.758 176.183 211.928 180.219 206.65C182.392 203.546 184.876 200.752 187.67 198.268C191.085 194.543 195.276 192.214 200.243 191.283C203.037 190.662 206.142 191.128 209.557 192.68C212.972 194.232 215.455 197.181 217.007 201.528C219.181 206.495 220.267 211.307 220.267 215.964C220.267 215.964 220.267 216.895 220.267 218.758C220.578 218.447 221.043 217.982 221.664 217.361L223.061 216.43C230.202 210.22 236.566 205.719 242.154 202.925C248.674 199.82 254.727 198.268 260.316 198.268C261.557 198.579 262.644 198.734 263.575 198.734ZM186.738 276.502C189.222 272.156 192.016 266.412 195.121 259.272C195.121 259.272 195.121 258.806 195.121 257.875C192.016 261.6 188.912 266.257 185.807 271.845C183.013 277.434 181.616 281.625 181.616 284.419C182.237 283.798 182.547 283.487 182.547 283.487C185.031 279.451 186.428 277.123 186.738 276.502Z" fill="white"/>
<path d="M375.033 197.337C376.275 197.958 376.895 198.889 376.895 200.131C377.206 201.993 377.206 203.856 376.895 205.719C375.964 210.376 374.101 216.74 371.307 224.812C367.271 237.54 362.149 251.666 355.94 267.189C349.11 284.884 343.832 298.234 340.107 307.237C334.829 320.276 328.931 332.228 322.411 343.094C318.065 349.924 313.718 355.512 309.372 359.859C306.888 362.963 304.405 365.292 301.921 366.844C300.679 367.775 298.817 368.862 296.333 370.104C294.781 371.035 292.918 371.501 290.745 371.501C290.745 371.501 289.969 371.501 288.416 371.501C287.175 371.501 286.399 371.501 286.088 371.501C283.604 371.19 280.655 370.104 277.24 368.241C275.067 366.999 272.739 364.981 270.255 362.187C266.84 357.841 263.735 352.563 260.941 346.354C258.458 340.766 256.595 335.333 255.353 330.055C253.491 323.536 252.093 316.706 251.162 309.565C249.61 299.631 248.834 290.938 248.834 283.487C248.834 273.242 248.989 263.929 249.299 255.547C249.299 252.753 249.765 246.388 250.696 236.454C251.007 230.555 251.473 225.588 252.093 221.552C252.714 215.653 253.646 209.134 254.888 201.993C256.129 194.853 257.371 188.489 258.613 182.901C258.923 180.727 260.01 175.139 261.873 166.136C263.425 160.238 264.356 156.512 264.667 154.96C265.598 151.234 267.15 145.336 269.324 137.264C270.565 133.228 271.807 129.503 273.049 126.088C273.98 122.673 275.377 118.326 277.24 113.049L279.569 105.132C279.569 105.132 279.724 104.977 280.034 104.667C280.345 103.735 280.5 103.114 280.5 102.804C285.467 89.4544 290.434 77.3467 295.402 66.4808C303.163 49.4059 310.769 35.5908 318.22 25.0354C322.256 19.1368 325.981 14.6352 329.396 11.5307C330.638 10.2889 332.656 8.73665 335.45 6.87393C337.002 5.63212 339.02 4.85598 341.504 4.54551C343.988 4.23506 346.626 5.16643 349.42 7.33961C350.662 8.58142 351.749 10.2889 352.68 12.4621C353.922 14.9457 354.698 17.7398 355.009 20.8443C355.629 25.1906 355.94 28.6056 355.94 31.0892C356.561 38.5401 356.25 46.7671 355.009 55.7702C353.456 68.8092 350.817 81.8483 347.092 94.8873C343.987 105.443 339.952 116.309 334.984 127.485C328.775 141.145 321.635 154.339 313.563 167.068C303.318 182.28 292.452 195.784 280.966 207.582C278.482 209.755 275.998 211.928 273.515 214.101C271.962 215.343 269.945 215.964 267.461 215.964C267.15 216.585 266.995 216.895 266.995 216.895C265.443 230.245 264.356 242.352 263.735 253.218C263.115 266.878 262.959 278.675 263.27 288.61C263.891 298.544 264.512 306.771 265.132 313.291C266.374 322.604 268.082 330.521 270.255 337.04C272.428 343.249 274.912 348.527 277.706 352.874C279.258 355.357 281.121 357.53 283.294 359.393C286.088 362.187 289.348 362.808 293.073 361.256C295.246 360.324 297.42 358.927 299.593 357.065C304.25 353.339 308.751 348.372 313.097 342.163C318.375 334.712 323.808 325.398 329.396 314.222C334.674 303.667 340.573 289.852 347.092 272.777C356.406 248.872 363.236 230.4 367.582 217.361C368.203 215.498 369.289 211.462 370.842 205.253C371.152 205.253 371.463 204.167 371.773 201.993C372.394 199.51 373.481 197.958 375.033 197.337ZM280.5 145.646C274.912 167.688 270.876 188.644 268.392 208.513C268.392 208.513 268.392 208.979 268.392 209.91C268.392 209.6 268.547 209.289 268.858 208.979C269.479 208.668 269.945 208.513 270.255 208.513C276.774 201.373 280.5 197.181 281.431 195.94C301.3 173.898 317.289 149.372 329.396 122.362C334.363 110.565 338.555 98.9232 341.97 87.4364C346.626 70.672 349.11 55.4598 349.42 41.7999C349.42 36.2117 349.265 31.7101 348.955 28.2952C348.644 24.5697 348.179 21.31 347.558 18.5159C346.937 16.3427 346.005 14.6352 344.764 13.3934C343.211 11.8412 341.504 11.5307 339.641 12.4621C338.089 13.7039 336.537 14.9457 334.984 16.1875C333.122 18.0502 330.948 20.8443 328.465 24.5697C323.808 31.0892 319.151 39.161 314.494 48.785C311.08 55.615 307.82 62.9106 304.715 70.672C300.369 81.2274 296.488 91.7828 293.073 102.338C293.073 102.338 292.918 103.114 292.608 104.667L290.279 110.255C286.864 121.741 283.604 133.539 280.5 145.646Z" fill="white"/>
<path d="M263.575 198.734C265.128 199.355 265.749 200.596 265.438 202.459C265.438 203.08 264.972 203.546 264.041 203.856C262.799 204.167 262.023 204.322 261.713 204.322C257.056 204.322 251.933 205.719 246.345 208.513C241.688 210.997 237.187 214.101 232.841 217.827C232.53 218.137 228.494 221.862 220.733 229.003C219.802 229.934 219.181 231.021 218.87 232.263C216.387 244.37 212.506 256.478 207.228 268.586C204.745 274.174 202.106 279.296 199.312 283.953C196.828 287.989 193.724 292.025 189.998 296.061C187.825 298.234 184.72 300.097 180.685 301.649C179.443 301.959 177.735 301.959 175.562 301.649C175.562 301.649 175.407 301.649 175.096 301.649C174.786 301.338 174.631 301.183 174.631 301.183C173.078 301.183 171.837 300.252 170.905 298.389C169.043 294.664 168.732 290.473 169.974 285.816C171.216 281.159 172.923 276.657 175.096 272.311C177.89 267.344 181.305 262.221 185.341 256.944C191.24 249.803 196.828 243.284 202.106 237.385C203.037 236.143 203.658 234.901 203.968 233.66C203.968 233.66 204.124 232.884 204.434 231.331C205.055 229.469 205.366 228.072 205.366 227.14C206.607 218.758 206.918 212.083 206.297 207.116C205.986 205.564 205.521 204.167 204.9 202.925C203.968 201.062 202.416 200.441 200.243 201.062C197.759 202.304 195.431 203.856 193.258 205.719C190.153 208.823 186.894 212.704 183.479 217.361C177.89 226.054 171.992 236.919 165.783 249.958C160.816 260.203 156.159 270.914 151.812 282.09C147.777 293.267 144.517 303.667 142.033 313.291C141.723 314.843 140.791 318.568 139.239 324.467C138.929 326.33 138.773 328.348 138.773 330.521C138.463 347.285 138.308 358.306 138.308 363.584C138.308 371.345 137.997 384.85 137.376 404.098C137.376 405.03 137.221 407.203 136.911 410.618C136.6 413.101 135.514 415.119 133.651 416.672C132.409 418.224 130.391 419 127.597 419C125.424 418.69 124.027 417.292 123.406 414.809C123.096 412.636 122.94 410.463 122.94 408.289C122.63 406.737 122.475 404.409 122.475 401.304C122.475 398.2 122.475 396.026 122.475 394.785C122.475 392.301 122.785 385.161 123.406 373.363C123.406 372.122 123.406 366.533 123.406 356.599C123.406 353.494 123.406 348.682 123.406 342.163C123.406 335.643 123.406 330.831 123.406 327.727C123.406 326.175 123.406 324.001 123.406 321.207C123.096 318.103 122.94 315.309 122.94 312.825C122.94 310.341 122.94 308.013 122.94 305.84C122.94 304.598 123.096 303.046 123.406 301.183C123.406 299.32 123.406 297.458 123.406 295.595C123.406 293.422 123.406 291.714 123.406 290.473C123.406 289.541 123.406 287.523 123.406 284.419C123.406 281.314 123.406 278.831 123.406 276.968C123.716 266.102 124.027 257.875 124.337 252.287C124.648 245.146 124.958 238.006 125.269 230.866C125.579 227.451 126.2 219.845 127.131 208.047C127.442 200.286 127.752 195.319 128.063 193.146C128.373 191.283 128.684 189.42 128.994 187.557C128.994 185.384 129.149 183.056 129.46 180.572C129.77 178.089 130.081 176.071 130.391 174.518C130.391 173.587 130.391 172.5 130.391 171.259C130.702 170.017 130.857 168.775 130.857 167.533C131.167 165.981 131.323 164.739 131.323 163.808C131.633 163.497 131.788 163.032 131.788 162.411C131.788 161.479 131.788 160.703 131.788 160.082C132.099 159.461 132.254 158.841 132.254 158.22C132.564 155.426 133.34 152.631 134.582 149.837C134.893 149.527 135.048 149.217 135.048 148.906C136.6 146.733 138.773 145.802 141.567 146.112C141.567 146.112 141.723 146.112 142.033 146.112C142.344 146.112 142.499 146.112 142.499 146.112C143.43 145.802 144.672 146.267 146.224 147.509C146.845 147.819 147.466 148.751 148.087 150.303C149.018 153.718 149.174 157.754 148.553 162.411C147.621 169.551 146.379 175.915 144.827 181.504C144.206 184.298 143.741 187.247 143.43 190.352C142.809 196.561 142.344 203.08 142.033 209.91C141.412 218.913 141.102 225.743 141.102 230.4C140.481 242.508 140.015 255.547 139.705 269.517C139.394 272.621 139.239 279.296 139.239 289.541C139.239 289.852 139.239 290.317 139.239 290.938C139.239 291.249 139.239 291.559 139.239 291.87C139.55 291.559 139.86 290.938 140.17 290.007C140.481 289.386 141.412 287.058 142.964 283.022C144.517 278.675 145.759 275.416 146.69 273.242C149.484 265.792 152.589 258.341 156.004 250.89C159.729 242.197 163.61 234.281 167.645 227.14C171.992 218.758 176.183 211.928 180.219 206.65C182.392 203.546 184.876 200.752 187.67 198.268C191.085 194.543 195.276 192.214 200.243 191.283C203.037 190.662 206.142 191.128 209.557 192.68C212.972 194.232 215.455 197.181 217.007 201.528C219.181 206.495 220.267 211.307 220.267 215.964C220.267 215.964 220.267 216.895 220.267 218.758C220.578 218.447 221.043 217.982 221.664 217.361L223.061 216.43C230.202 210.22 236.566 205.719 242.154 202.925C248.674 199.82 254.727 198.268 260.316 198.268C261.557 198.579 262.644 198.734 263.575 198.734ZM186.738 276.502C189.222 272.156 192.016 266.412 195.121 259.272C195.121 259.272 195.121 258.806 195.121 257.875C192.016 261.6 188.912 266.257 185.807 271.845C183.013 277.434 181.616 281.625 181.616 284.419C182.237 283.798 182.547 283.487 182.547 283.487C185.031 279.451 186.428 277.123 186.738 276.502Z" stroke="white" strokeWidth="8.20517" mask="url(#path-2-outside-1_1463_673)"/>
<path d="M375.033 197.337C376.275 197.958 376.895 198.889 376.895 200.131C377.206 201.993 377.206 203.856 376.895 205.719C375.964 210.376 374.101 216.74 371.307 224.812C367.271 237.54 362.149 251.666 355.94 267.189C349.11 284.884 343.832 298.234 340.107 307.237C334.829 320.276 328.931 332.228 322.411 343.094C318.065 349.924 313.718 355.512 309.372 359.859C306.888 362.963 304.405 365.292 301.921 366.844C300.679 367.775 298.817 368.862 296.333 370.104C294.781 371.035 292.918 371.501 290.745 371.501C290.745 371.501 289.969 371.501 288.416 371.501C287.175 371.501 286.399 371.501 286.088 371.501C283.604 371.19 280.655 370.104 277.24 368.241C275.067 366.999 272.739 364.981 270.255 362.187C266.84 357.841 263.735 352.563 260.941 346.354C258.458 340.766 256.595 335.333 255.353 330.055C253.491 323.536 252.093 316.706 251.162 309.565C249.61 299.631 248.834 290.938 248.834 283.487C248.834 273.242 248.989 263.929 249.299 255.547C249.299 252.753 249.765 246.388 250.696 236.454C251.007 230.555 251.473 225.588 252.093 221.552C252.714 215.653 253.646 209.134 254.888 201.993C256.129 194.853 257.371 188.489 258.613 182.901C258.923 180.727 260.01 175.139 261.873 166.136C263.425 160.238 264.356 156.512 264.667 154.96C265.598 151.234 267.15 145.336 269.324 137.264C270.565 133.228 271.807 129.503 273.049 126.088C273.98 122.673 275.377 118.326 277.24 113.049L279.569 105.132C279.569 105.132 279.724 104.977 280.034 104.667C280.345 103.735 280.5 103.114 280.5 102.804C285.467 89.4544 290.434 77.3467 295.402 66.4808C303.163 49.4059 310.769 35.5908 318.22 25.0354C322.256 19.1368 325.981 14.6352 329.396 11.5307C330.638 10.2889 332.656 8.73665 335.45 6.87393C337.002 5.63212 339.02 4.85598 341.504 4.54551C343.988 4.23506 346.626 5.16643 349.42 7.33961C350.662 8.58142 351.749 10.2889 352.68 12.4621C353.922 14.9457 354.698 17.7398 355.009 20.8443C355.629 25.1906 355.94 28.6056 355.94 31.0892C356.561 38.5401 356.25 46.7671 355.009 55.7702C353.456 68.8092 350.817 81.8483 347.092 94.8873C343.987 105.443 339.952 116.309 334.984 127.485C328.775 141.145 321.635 154.339 313.563 167.068C303.318 182.28 292.452 195.784 280.966 207.582C278.482 209.755 275.998 211.928 273.515 214.101C271.962 215.343 269.945 215.964 267.461 215.964C267.15 216.585 266.995 216.895 266.995 216.895C265.443 230.245 264.356 242.352 263.735 253.218C263.115 266.878 262.959 278.675 263.27 288.61C263.891 298.544 264.512 306.771 265.132 313.291C266.374 322.604 268.082 330.521 270.255 337.04C272.428 343.249 274.912 348.527 277.706 352.874C279.258 355.357 281.121 357.53 283.294 359.393C286.088 362.187 289.348 362.808 293.073 361.256C295.246 360.324 297.42 358.927 299.593 357.065C304.25 353.339 308.751 348.372 313.097 342.163C318.375 334.712 323.808 325.398 329.396 314.222C334.674 303.667 340.573 289.852 347.092 272.777C356.406 248.872 363.236 230.4 367.582 217.361C368.203 215.498 369.289 211.462 370.842 205.253C371.152 205.253 371.463 204.167 371.773 201.993C372.394 199.51 373.481 197.958 375.033 197.337ZM280.5 145.646C274.912 167.688 270.876 188.644 268.392 208.513C268.392 208.513 268.392 208.979 268.392 209.91C268.392 209.6 268.547 209.289 268.858 208.979C269.479 208.668 269.945 208.513 270.255 208.513C276.774 201.373 280.5 197.181 281.431 195.94C301.3 173.898 317.289 149.372 329.396 122.362C334.363 110.565 338.555 98.9232 341.97 87.4364C346.626 70.672 349.11 55.4598 349.42 41.7999C349.42 36.2117 349.265 31.7101 348.955 28.2952C348.644 24.5697 348.179 21.31 347.558 18.5159C346.937 16.3427 346.005 14.6352 344.764 13.3934C343.211 11.8412 341.504 11.5307 339.641 12.4621C338.089 13.7039 336.537 14.9457 334.984 16.1875C333.122 18.0502 330.948 20.8443 328.465 24.5697C323.808 31.0892 319.151 39.161 314.494 48.785C311.08 55.615 307.82 62.9106 304.715 70.672C300.369 81.2274 296.488 91.7828 293.073 102.338C293.073 102.338 292.918 103.114 292.608 104.667L290.279 110.255C286.864 121.741 283.604 133.539 280.5 145.646Z" stroke="white" strokeWidth="8.20517" mask="url(#path-2-outside-1_1463_673)"/>
</svg>
